<?xml version="1.0" encoding="UTF-8" standalone="no"?>
<!-- Generator: Adobe Illustrator 19.0.0, SVG Export Plug-In . SVG Version: 6.00 Build 0)  -->

<svg
   xmlns:dc="http://purl.org/dc/elements/1.1/"
   xmlns:cc="http://creativecommons.org/ns#"
   xmlns:rdf="http://www.w3.org/1999/02/22-rdf-syntax-ns#"
   xmlns:svg="http://www.w3.org/2000/svg"
   xmlns="http://www.w3.org/2000/svg"
   xmlns:sodipodi="http://sodipodi.sourceforge.net/DTD/sodipodi-0.dtd"
   xmlns:inkscape="http://www.inkscape.org/namespaces/inkscape"
   version="1.1"
   id="Capa_1"
   x="0px"
   y="0px"
   viewBox="0 0 297.221 297.221"
   style="enable-background:new 0 0 297.221 297.221;"
   xml:space="preserve"
   sodipodi:docname="clap.svg"
   inkscape:version="0.92.4 (33fec40, 2019-01-16)"><metadata
   id="metadata140"><rdf:RDF><cc:Work
       rdf:about=""><dc:format>image/svg+xml</dc:format><dc:type
         rdf:resource="http://purl.org/dc/dcmitype/StillImage" /><dc:title></dc:title></cc:Work></rdf:RDF></metadata><defs
   id="defs138" /><sodipodi:namedview
   pagecolor="#ffffff"
   bordercolor="#666666"
   borderopacity="1"
   objecttolerance="10"
   gridtolerance="10"
   guidetolerance="10"
   inkscape:pageopacity="0"
   inkscape:pageshadow="2"
   inkscape:window-width="1610"
   inkscape:window-height="986"
   id="namedview136"
   showgrid="false"
   inkscape:zoom="2.6041228"
   inkscape:cx="137.88925"
   inkscape:cy="146.89982"
   inkscape:window-x="70"
   inkscape:window-y="27"
   inkscape:window-maximized="1"
   inkscape:current-layer="Capa_1" />

<g
   id="g105">
</g>
<g
   id="g107">
</g>
<g
   id="g109">
</g>
<g
   id="g111">
</g>
<g
   id="g113">
</g>
<g
   id="g115">
</g>
<g
   id="g117">
</g>
<g
   id="g119">
</g>
<g
   id="g121">
</g>
<g
   id="g123">
</g>
<g
   id="g125">
</g>
<g
   id="g127">
</g>
<g
   id="g129">
</g>
<g
   id="g131">
</g>
<g
   id="g133">
</g>
<path
   style="fill:#ff00ff;stroke-width:0.29689941"
   d="m 173.38979,276.5139 c 1.10055,-0.35257 2.55512,-0.99503 3.23237,-1.42771 0.67726,-0.43267 14.36418,-12.9941 30.41539,-27.91427 27.35524,-25.42773 29.25056,-27.25322 30.2463,-29.13202 1.87692,-3.54144 1.9267,-7.70124 0.1348,-11.26299 l -0.93844,-1.86533 6.88852,-6.46444 c 7.57292,-7.10671 8.18348,-7.91294 8.88847,-11.737 0.47281,-2.56458 0.0172,-5.34831 -1.25914,-7.6941 -0.48985,-0.90026 -2.90222,-3.82736 -5.36084,-6.50466 -2.4586,-2.67731 -4.53609,-5.18997 -4.61662,-5.5837 -0.0805,-0.39371 -2.32024,-15.59853 -4.97712,-33.78846 -2.65688,-18.18994 -5.02594,-33.910164 -5.26458,-34.933834 -1.42788,-6.12518 -6.72402,-11.49833 -13.39768,-13.59251 -2.24567,-0.70468 -3.05249,-0.81156 -6.12648,-0.81156 -3.08109,0 -3.87863,0.10617 -6.14952,0.81864 -6.50868,2.04204 -11.58688,7.06556 -13.21211,13.06986 -0.3295,1.21732 -0.65442,3.821244 -0.77792,6.234304 -0.11664,2.27912 -0.27814,4.2053 -0.35889,4.28041 -0.0807,0.0751 -11.67503,-10.568414 -25.7651,-23.652254 l -25.61829,-23.788798 -2.61669,-1.185042 c -5.98567,-2.710789 -12.22859,-2.706296 -18.15904,0.01307 -3.68865,1.691409 -7.12375,4.894034 -8.87847,8.277605 -0.68962,1.329807 -1.38693,2.975494 -1.54956,3.657084 -0.16263,0.681589 -0.34955,1.289356 -0.41539,1.350592 -0.0658,0.06123 -0.80542,-0.346155 -1.64352,-0.905317 -3.67234,-2.450099 -7.331812,-3.545758 -11.842735,-3.545758 -3.580988,0 -5.798469,0.49391 -9.225441,2.05483 -4.988962,2.27237 -8.907379,6.817149 -10.325463,11.975984 -1.03063,3.74932 -0.485473,9.14512 1.24486,12.32127 0.573584,1.05285 0.677103,1.4657 0.3886,1.54992 -3.693141,1.07804 -4.951084,1.58711 -6.866971,2.77903 -7.585744,4.719284 -10.843147,13.418384 -7.989295,21.335934 0.445069,1.23477 1.249245,2.95315 1.787059,3.81864 0.537822,0.86549 1.141372,1.92199 1.341228,2.3478 0.360621,0.76832 0.350112,0.77776 -1.385304,1.24392 -4.270789,1.14719 -8.647511,4.16373 -11.077683,7.63498 -3.602184,5.14537 -4.281941,11.32604 -1.883154,17.12253 1.076718,2.60179 2.336352,4.3814 5.043123,7.1249 1.127576,1.14287 2.005697,2.20197 1.951376,2.35353 -0.05427,0.15157 -1.205514,0.63383 -2.55823,1.0717 -2.69424,0.87212 -4.570805,1.87089 -6.461455,3.43903 -7.072333,5.86593 -8.91736,15.14985 -4.577844,23.03511 1.045301,1.8994 2.662078,3.482 20.557276,20.12275 10.682518,9.93367 21.500709,19.79524 24.040437,21.91458 20.772076,17.33388 38.817496,28.18776 54.867776,33.00162 1.82322,0.54684 3.80717,1.07904 4.40878,1.1827 0.76246,0.13137 2.9075,1.48988 7.08044,4.48422 3.29263,2.36268 6.58031,4.62299 7.30596,5.02292 3.38215,1.86407 7.83312,2.31098 11.45621,1.15029 z m -5.81448,-8.25251 c -0.53947,-0.17492 -4.03598,-2.49264 -7.77003,-5.15048 -4.66024,-3.31707 -7.19069,-4.93272 -8.06957,-5.15228 -3.90867,-0.97645 -9.6011,-2.74787 -12.47207,-3.88118 -9.47316,-3.73951 -21.06757,-10.55016 -32.52231,-19.10388 -9.179414,-6.85464 -14.489262,-11.47905 -34.841672,-30.34411 -22.160241,-20.54077 -21.164883,-19.41437 -21.170046,-23.95731 -0.0032,-2.97924 0.872742,-4.9938 3.054253,-7.02293 2.188846,-2.03596 4.348928,-2.84762 7.553693,-2.83835 2.303509,0.007 2.878841,0.12022 4.761706,0.93978 1.987059,0.86491 3.097744,1.81765 15.388861,13.20051 12.315023,11.40499 13.337855,12.28206 14.534888,12.46368 1.660259,0.25191 3.725392,-0.55972 4.715707,-1.85335 0.76529,-0.99966 1.14136,-3.14713 0.78701,-4.49388 -0.14487,-0.55061 -6.720408,-6.87757 -20.922011,-20.13113 -23.181387,-21.63386 -22.018827,-20.34116 -22.275095,-24.76866 -0.107127,-1.85085 -0.0064,-2.60125 0.523215,-3.90775 1.681351,-4.14572 6.304113,-6.85614 10.998118,-6.44842 4.177067,0.36282 3.157243,-0.45069 26.116795,20.83281 22.655438,21.0016 21.501338,20.07026 24.339888,19.6418 2.54723,-0.38449 4.37611,-2.81929 3.98889,-5.31045 -0.20357,-1.30958 -0.56592,-1.66295 -26.319714,-25.66702 -27.931431,-26.03374 -27.307229,-25.38853 -27.995981,-28.93867 -1.315262,-6.77952 5.135242,-12.78527 12.413564,-11.55764 1.012969,0.17086 2.403412,0.57105 3.089879,0.88933 0.813715,0.37726 10.355367,9.03129 27.414952,24.86462 28.14436,26.12135 27.11606,25.26425 29.75432,24.80059 3.30354,-0.58059 5.20754,-3.89795 3.76783,-6.56475 -0.2721,-0.50401 -9.73936,-9.54963 -21.03834,-20.10136 -23.31158,-21.76989 -22.00068,-20.28577 -22.00432,-24.91184 -0.002,-2.22498 0.11282,-2.79721 0.83857,-4.188164 0.99045,-1.89829 3.34177,-4.04769 5.3827,-4.92046 1.16391,-0.49774 2.03269,-0.62162 4.3767,-0.62403 5.20166,-0.005 2.37871,-2.27228 35.86395,28.799874 25.97229,24.10061 29.69009,27.44653 30.68348,27.6143 1.5249,0.25751 2.85193,-0.0519 3.96753,-0.92501 1.72264,-1.34827 1.75678,-1.53727 2.1128,-11.69734 0.32139,-9.17196 0.51523,-10.82119 1.47587,-12.55688 0.87722,-1.58494 3.13228,-3.51327 5.09434,-4.35622 1.65145,-0.70949 2.28427,-0.82266 4.53589,-0.81112 2.20276,0.0113 2.89252,0.1373 4.36049,0.79666 3.8088,1.71079 5.79214,4.64686 6.41616,9.49829 0.20257,1.57488 2.5525,17.63574 5.22207,35.69079 l 4.85376,32.82738 5.15443,5.54258 c 2.83494,3.04842 5.27745,5.84089 5.42779,6.20549 0.41675,1.01069 0.3271,2.58128 -0.20709,3.62839 -0.66078,1.29522 -56.76179,53.30374 -58.06699,53.83107 -1.24744,0.504 -2.01649,0.53123 -3.29486,0.11672 z m 59.83798,-73.41526 c -0.15192,-0.59004 -9.55463,-64.44459 -9.86652,-67.00425 -0.23892,-1.96088 -1.22723,-4.81233 -2.38194,-6.87224 -1.28622,-2.29451 -5.3201,-6.03269 -7.82733,-7.25354 -2.25385,-1.09747 -5.11353,-2.0526 -6.14559,-2.0526 -0.40209,0 -0.79478,-0.16106 -0.87265,-0.35793 -0.0778,-0.19686 -0.0299,-2.80616 0.10667,-5.79844 0.23303,-5.10711 0.30182,-5.550924 1.12254,-7.242044 2.2934,-4.72562 8.28433,-7.02332 13.54175,-5.19366 3.36392,1.17069 6.30083,4.52188 6.75782,7.711034 0.10156,0.70871 2.47633,16.85859 5.27727,35.88863 l 5.09263,34.60008 5.21662,5.63111 c 7.73311,8.34751 7.76595,7.7624 -0.89178,15.89002 l -6.04773,5.67743 -1.46715,-1.52546 c -0.80693,-0.83899 -1.5335,-1.78317 -1.61461,-2.09814 z m -79.78604,-85.9833 C 119.14281,82.498076 118.30583,81.692676 117.6563,80.022603 c -0.9919,-2.550389 -0.93668,-5.566578 0.14219,-7.766399 2.51491,-5.127945 8.85487,-7.396088 14.34006,-5.130212 1.8852,0.778754 3.47411,2.193513 27.45688,24.447434 l 25.4559,23.620844 -1.94891,1.95797 c -2.14829,2.15829 -4.14304,5.43978 -4.93145,8.11255 -0.31439,1.0658 -0.57507,3.43023 -0.68666,6.22796 -0.0989,2.48044 -0.26411,4.50593 -0.36709,4.50107 -0.10296,-0.005 -13.37345,-12.2138 -29.48997,-27.13099 z M 92.223288,99.392766 c -2.773702,-2.05408 -6.723721,-6.13613 -7.667186,-7.92349 -0.806596,-1.52808 -0.903133,-2.00186 -0.902925,-4.43127 1.85e-4,-2.19 0.130953,-2.98355 0.670875,-4.07101 0.94502,-1.90335 3.254325,-4.086823 5.292962,-5.004551 1.482201,-0.667238 2.131727,-0.781412 4.502664,-0.791492 4.075538,-0.01733 5.411267,0.644844 10.219202,5.066083 2.08348,1.91589 3.68415,3.56722 3.55706,3.66963 -0.12709,0.10241 -0.82425,0.39945 -1.54924,0.66009 -5.32959,1.91613 -10.338366,7.21112 -11.783875,12.45725 -0.22309,0.80967 -0.505525,1.472124 -0.627627,1.472124 -0.122101,0 -0.892463,-0.496514 -1.71191,-1.103364 z"
   id="path142"
   inkscape:connector-curvature="0" /><path
   style="fill:#8c5dff;fill-opacity:1;stroke-width:0.29689941"
   d="m 173.359,276.36133 c 0.84658,-0.29275 2.01038,-0.75941 2.58624,-1.03704 1.31614,-0.63452 58.29186,-53.54773 60.05317,-55.77122 3.00383,-3.79209 3.31212,-9.1222 0.79003,-13.65873 l -0.51607,-0.92827 6.15865,-5.82295 c 3.38726,-3.20262 6.78179,-6.61029 7.54339,-7.5726 2.40325,-3.03656 2.96932,-7.42618 1.44477,-11.20362 -0.66037,-1.63623 -2.52096,-4.05596 -6.58877,-8.56884 -1.34733,-1.49475 -2.78167,-3.18433 -3.18742,-3.75464 -0.67377,-0.94701 -1.11136,-3.56658 -5.04682,-30.21172 -5.48845,-37.15979 -5.94479,-40.003884 -6.7323,-41.958814 -1.95961,-4.86465 -6.56442,-9.01657 -12.21538,-11.014 -2.82425,-0.99829 -7.59237,-1.24691 -10.73437,-0.55972 -3.79757,0.83055 -6.43259,2.25575 -9.5432,5.1616 -4.36854,4.081 -5.4671,6.66129 -6.06974,14.256714 -0.19681,2.48045 -0.49018,4.50991 -0.65192,4.50991 -0.16175,0 -11.80666,-10.670434 -25.87757,-23.712054 L 139.1882,60.803287 136.72544,59.757458 c -3.47059,-1.473807 -5.68335,-1.948599 -9.08143,-1.948599 -3.42229,0 -5.7715,0.502229 -8.77358,1.875669 -4.99161,2.283643 -8.88039,6.629707 -10.46295,11.693301 -0.28008,0.896154 -0.60331,1.628818 -0.71829,1.628146 -0.11497,-6.88e-4 -0.83242,-0.394305 -1.59434,-0.874734 -3.93754,-2.482831 -7.214313,-3.45675 -11.713147,-3.48137 -3.494031,-0.01911 -5.509293,0.369516 -8.450703,1.629693 -5.551267,2.378302 -9.625199,6.945251 -11.117846,12.463292 -0.756878,2.79803 -0.467259,7.47697 0.63807,10.30835 1.394138,3.57121 1.488278,3.26586 -1.270248,4.12037 -4.861009,1.50579 -9.25398,5.113714 -11.448446,9.402554 -1.582987,3.09374 -2.03289,4.92572 -2.023382,8.23914 0.0093,3.24727 0.732964,5.71524 2.796317,9.53665 0.757991,1.40383 1.314316,2.7072 1.236274,2.89635 -0.078,0.18916 -0.745061,0.50976 -1.482274,0.71243 -4.928797,1.35503 -9.793453,5.21484 -12.122935,9.61884 -1.460468,2.76106 -1.993023,4.9417 -1.993023,8.16077 0,4.99802 1.696526,8.90568 5.839338,13.44993 1.359859,1.49163 2.472483,2.79888 2.472483,2.90496 0,0.1061 -1.273423,0.66698 -2.829826,1.24641 -1.556403,0.57942 -3.548328,1.49711 -4.426497,2.03929 -3.336456,2.05993 -6.238223,5.68834 -7.68443,9.6087 -0.781648,2.1189 -0.881496,2.78341 -0.875684,5.82773 0.0056,2.98932 0.116386,3.73396 0.851177,5.72685 0.46455,1.2599 1.198267,2.87058 1.630494,3.57929 1.028105,1.68573 41.195392,39.02192 47.252511,43.92203 20.430997,16.52832 38.485847,26.97699 53.510267,30.96738 1.60849,0.42721 3.29607,0.95269 3.75019,1.16774 0.45413,0.21506 3.64496,2.3616 7.09075,4.7701 3.44579,2.4085 7.02235,4.68959 7.94791,5.06912 2.32513,0.95339 7.40251,1.13344 9.68681,0.34349 z m -6.99903,-8.65027 c -0.7752,-0.47761 -4.01913,-2.66487 -7.20874,-4.86058 -3.18962,-2.19571 -6.21553,-4.17625 -6.72426,-4.40121 -0.50873,-0.22495 -3.55704,-1.20084 -6.77402,-2.16864 -10.66415,-3.20824 -20.812,-8.45741 -33.70904,-17.43664 -10.7515,-7.48545 -17.007115,-12.77871 -38.291705,-32.40097 -15.941618,-14.69657 -21.380556,-20.03525 -22.392563,-21.97976 -0.911503,-1.7514 -0.744765,-6.14409 0.309876,-8.16353 0.95925,-1.8368 3.204605,-3.86693 5.269393,-4.76432 1.445268,-0.62814 2.123101,-0.73632 4.6184,-0.7371 4.748952,-10e-4 4.704788,-0.0321 19.391774,13.42719 6.858608,6.28528 13.010468,11.79381 13.670801,12.24117 3.09708,2.09816 6.930774,-0.17153 6.950534,-4.11499 0.006,-1.33697 -0.0269,-1.3819 -3.753606,-5.01099 C 95.648618,185.32662 87.08633,177.23603 78.689524,169.3616 63.295669,154.92542 59.793805,151.43186 58.83676,149.55592 c -0.359155,-0.70401 -0.537125,-1.84503 -0.567532,-3.63858 -0.03856,-2.27591 0.06037,-2.82051 0.766938,-4.2222 1.10238,-2.18684 2.653372,-3.70416 4.955221,-4.84766 1.657108,-0.8232 2.30346,-0.97544 4.575888,-1.07781 3.214698,-0.1448 4.408836,0.26681 7.35876,2.53655 1.100544,0.84679 10.250179,9.14707 20.332515,18.44507 10.08234,9.298 19.14456,17.4853 20.13825,18.19399 1.50622,1.07422 2.0198,1.28418 3.0877,1.26226 2.39849,-0.0492 4.40355,-1.84606 4.68905,-4.20208 0.13456,-1.11034 0.022,-1.3778 -1.17655,-2.79487 -0.72894,-0.86187 -11.65665,-11.23112 -24.283787,-23.04277 -12.627146,-11.81164 -23.953266,-22.53364 -25.169161,-23.82667 -3.280187,-3.48829 -3.620999,-4.21029 -3.620999,-7.67105 0,-2.71337 0.05483,-2.95749 1.046399,-4.65833 1.23807,-2.12367 2.895731,-3.59834 5.100001,-4.53701 3.488452,-1.48551 7.895372,-1.08362 10.608724,0.96747 0.774258,0.58528 10.68927,9.63684 22.033353,20.11457 25.04693,23.13406 29.62482,27.24868 31.38296,28.20704 1.22177,0.66601 1.48924,0.71049 2.5996,0.43239 3.54148,-0.88702 5.12072,-4.27055 3.15813,-6.76628 -0.48301,-0.61422 -9.10667,-8.84802 -19.1637,-18.29733 -18.71891,-17.58778 -21.66016,-20.49345 -22.74312,-22.46796 -0.95442,-1.74015 -0.88207,-5.91936 0.13774,-7.956844 0.89116,-1.78045 3.23449,-4.0525 5.12442,-4.96856 1.86775,-0.90529 7.03446,-1.14153 8.61363,-0.39382 2.37106,1.12263 6.53118,4.80521 31.81739,28.165054 14.55541,13.44655 27.40902,25.20451 28.56357,26.12879 1.84544,1.47739 2.25636,1.68039 3.39962,1.67945 1.46903,-10e-4 3.01026,-0.75112 3.77507,-1.83683 0.5314,-0.75438 0.71891,-2.82677 1.34933,-14.91316 0.37111,-7.11475 0.69152,-8.24625 2.92285,-10.32172 0.88907,-0.82698 2.36682,-1.87097 3.28389,-2.32 1.5162,-0.74236 1.94657,-0.81563 4.74585,-0.80781 2.62554,0.007 3.28227,0.10788 4.46376,0.68341 2.77859,1.35349 4.56226,3.23433 5.5525,5.85494 0.49461,1.30897 5.00264,30.92843 10.00774,65.75465 0.41872,2.91354 0.87756,5.62964 1.01965,6.03578 0.14209,0.40614 2.25337,2.89791 4.69175,5.53726 6.0408,6.53868 6.22526,6.80514 6.02247,8.69987 -0.15826,1.47883 -0.25602,1.60999 -3.84153,5.15417 -5.37734,5.31537 -50.97279,47.47397 -53.25257,49.23854 -2.41689,1.8707 -3.74572,2.01136 -5.98256,0.63323 z m 62.58455,-70.64579 c -0.69289,-0.74806 -1.39895,-1.81111 -1.56903,-2.36231 -0.30681,-0.99435 -2.00278,-12.27847 -7.36683,-49.01511 -1.71271,-11.72978 -3.03751,-19.84575 -3.43548,-21.0462 -1.09264,-3.29598 -2.02137,-4.65625 -5.15779,-7.55433 -3.19748,-2.9545 -5.36096,-4.15192 -9.18895,-5.08579 l -1.93099,-0.47109 0.0101,-4.15703 c 0.0176,-7.28841 0.63763,-9.508644 3.36306,-12.043704 4.34491,-4.04144 11.31566,-3.93838 15.44481,0.22834 2.57661,2.60004 2.21692,0.79997 7.96231,39.848094 2.87961,19.57099 5.23564,35.62686 5.23564,35.6797 0,0.0529 1.95464,2.19915 4.34364,4.7696 4.9026,5.27495 6.0602,6.7284 6.47692,8.13222 0.54318,1.82981 -0.41506,3.11759 -6.72762,9.04119 -3.16301,2.96811 -5.85195,5.39656 -5.97544,5.39656 -0.12348,0 -0.79142,-0.61206 -1.48431,-1.36014 z M 152.02496,113.09521 C 126.28534,89.398416 118.29095,81.767136 117.52874,80.165773 c -0.32297,-0.678534 -0.48161,-1.926949 -0.4912,-3.865629 -0.012,-2.425207 0.094,-3.067744 0.69287,-4.198461 1.13376,-2.140737 2.95478,-3.84115 5.22869,-4.882405 1.83606,-0.840753 2.33507,-0.941137 4.67844,-0.941137 3.00981,0 4.06005,0.317845 6.47122,1.958442 0.93123,0.633625 12.8047,11.455984 26.3855,24.049683 l 24.69236,22.897634 -1.42173,1.46116 c -1.98482,2.03986 -3.98433,4.98496 -4.86947,7.17231 -0.74996,1.85331 -1.37971,6.25907 -1.38025,9.65636 -3e-4,2.14208 -0.21238,2.66531 -0.88278,2.1783 -0.27653,-0.20089 -11.34987,-10.35145 -24.60743,-22.55682 z M 92.030776,99.394936 c -2.561781,-1.88353 -6.525453,-6.07678 -7.52873,-7.96478 -0.89389,-1.68217 -0.932402,-1.90193 -0.827897,-4.72467 0.130423,-3.52271 0.57744,-4.56451 2.884789,-6.723141 2.539093,-2.375442 3.706472,-2.812354 7.529956,-2.818217 4.374055,-0.0068 5.224142,0.401995 10.082946,4.847638 2.07466,1.89824 3.77125,3.58021 3.77019,3.7377 -8e-4,0.15748 -1.08555,0.76069 -2.40997,1.34047 -1.67802,0.73456 -3.11164,1.66533 -4.72893,3.07021 -3.282653,2.8515 -4.741581,5.06987 -6.562152,9.978054 -0.210445,0.56735 -0.610733,0.43274 -2.210202,-0.743264 z"
   id="path4658"
   inkscape:connector-curvature="0" /><path
   style="fill:#8c5dff;fill-opacity:1;stroke-width:0.3856793"
   d="m 110.54037,44.68053 c 1.06071,-1.637722 0.99268,-4.02897 -0.16527,-5.809038 -0.98039,-1.507129 -7.26243,-7.877602 -12.28554,-12.458491 -3.43463,-3.132249 -4.6338,-3.583277 -7.17516,-2.698747 -3.01053,1.047842 -4.54645,4.52498 -3.23017,7.312759 0.74646,1.580959 11.34766,12.339023 14.76909,14.98764 0.73552,0.569382 1.98348,1.102646 2.77323,1.185033 1.8543,0.193442 4.3114,-0.971408 5.31382,-2.519158 z"
   id="path4660"
   inkscape:connector-curvature="0" /><path
   style="fill:#8c5dff;fill-opacity:1;stroke-width:0.3856793"
   d="m 152.5191,43.5481 c 1.24478,2.059134 2.60428,2.87084 4.8083,2.87084 1.1644,0 2.32444,-0.247028 2.8268,-0.601971 1.75189,-1.237784 12.40212,-16.307445 13.15817,-18.618278 1.03277,-3.156664 -1.83034,-6.735512 -5.38427,-6.730277 -2.87647,0.004 -3.44879,0.552412 -9.29902,8.906706 -7.32415,10.459123 -7.75329,11.45458 -6.10998,14.17298 z"
   id="path4662"
   inkscape:connector-curvature="0" /><path
   style="fill:#8c5dff;fill-opacity:1;stroke-width:0.3856793"
   d="m 127.38362,13.601385 c 1.76647,-2.62371 5.32209,-3.422848 7.83613,-1.761204 1.98244,1.310291 2.17227,2.533429 2.22714,14.350385 0.0373,8.037694 -0.0737,11.064756 -0.42886,11.690684 -1.41396,2.49206 -5.45158,3.463943 -7.65204,1.841893 -2.34366,-1.727604 -2.53419,-2.726207 -2.72331,-14.273047 l -0.17186,-10.492955 z"
   id="path4664"
   inkscape:connector-curvature="0" /></svg>